<svg width="323" height="77" viewBox="0 0 323 77" fill="none" xmlns="http://www.w3.org/2000/svg">
<g clip-path="url(#clip0_7_8)">
<path d="M100 9C98.692 9 98.7 11 100 11H113.684C115.124 11 115.144 11.816 114.792 12.54L107.112 27.54C106.768 28.208 107.252 29 108 29H122.144C122.444 29 122.79 29.186 122.924 29.496C123.064 29.806 123.114 30.382 122.348 31.396L97.66 64.14L100.988 44.164C101.088 43.554 100.618 42.998 100 43H92.08C90.966 43 90.88 42.672 91.07 41.132L94.99 12.132C95.17 10.812 93.184 10.544 93.01 11.868L89.086 40.868C88.936 41.98 88.966 42.964 89.492 43.788C90.02 44.614 91.028 45 92.078 45H98.814L95.012 67.836C94.84 68.868 96.168 69.436 96.796 68.602L123.946 32.602C124.994 31.214 125.232 29.79 124.758 28.702C124.278 27.614 123.218 27.002 122.142 27.002H109.634L116.568 13.462C116.944 12.726 117.2 11.75 116.808 10.742C116.414 9.726 115.24 9 113.68 9H100Z" fill="#0077B6"/>
</g>
<path d="M11.232 39.864C11.232 42.4027 11.5733 44.6853 12.256 46.712C12.9387 48.7173 13.9093 50.424 15.168 51.832C16.448 53.2187 17.984 54.2853 19.776 55.032C21.5893 55.7787 23.6267 56.152 25.888 56.152C28.1493 56.152 30.176 55.7787 31.968 55.032C33.7813 54.2853 35.3173 53.2187 36.576 51.832C37.8347 50.424 38.8053 48.7173 39.488 46.712C40.1707 44.6853 40.512 42.4027 40.512 39.864C40.512 37.3253 40.1707 35.0533 39.488 33.048C38.8053 31.0213 37.8347 29.304 36.576 27.896C35.3173 26.488 33.7813 25.4107 31.968 24.664C30.176 23.9173 28.1493 23.544 25.888 23.544C23.6267 23.544 21.5893 23.9173 19.776 24.664C17.984 25.4107 16.448 26.488 15.168 27.896C13.9093 29.304 12.9387 31.0213 12.256 33.048C11.5733 35.0533 11.232 37.3253 11.232 39.864ZM51.712 72.056H44.608C43.584 72.056 42.656 71.9173 41.824 71.64C41.0133 71.3627 40.2667 70.8507 39.584 70.104L32.8 62.616C31.712 62.9147 30.592 63.1387 29.44 63.288C28.3093 63.4373 27.1253 63.512 25.888 63.512C22.3893 63.512 19.2 62.9253 16.32 61.752C13.44 60.5573 10.9653 58.904 8.896 56.792C6.848 54.68 5.25867 52.184 4.128 49.304C2.99733 46.4027 2.432 43.256 2.432 39.864C2.432 36.472 2.99733 33.336 4.128 30.456C5.25867 27.5547 6.848 25.048 8.896 22.936C10.9653 20.824 13.44 19.1813 16.32 18.008C19.2 16.8133 22.3893 16.216 25.888 16.216C28.2347 16.216 30.4427 16.4933 32.512 17.048C34.5813 17.5813 36.48 18.3493 38.208 19.352C39.936 20.3333 41.4827 21.5387 42.848 22.968C44.2347 24.376 45.408 25.9547 46.368 27.704C47.328 29.4533 48.0533 31.352 48.544 33.4C49.056 35.448 49.312 37.6027 49.312 39.864C49.312 41.9333 49.0987 43.9173 48.672 45.816C48.2453 47.6933 47.6267 49.4533 46.816 51.096C46.0267 52.7387 45.056 54.2533 43.904 55.64C42.752 57.0053 41.44 58.2107 39.968 59.256L51.712 72.056ZM83.442 30.168V63H78.61C77.5647 63 76.9033 62.52 76.626 61.56L76.082 58.936C74.738 60.3013 73.2553 61.4107 71.634 62.264C70.0127 63.096 68.1033 63.512 65.906 63.512C64.114 63.512 62.5247 63.2133 61.138 62.616C59.7727 61.9973 58.6207 61.1333 57.682 60.024C56.7433 58.9147 56.0287 57.6027 55.538 56.088C55.0687 54.552 54.834 52.8667 54.834 51.032V30.168H62.738V51.032C62.738 53.0373 63.1967 54.5947 64.114 55.704C65.0527 56.792 66.45 57.336 68.306 57.336C69.6713 57.336 70.9513 57.0373 72.146 56.44C73.3407 55.8213 74.4713 54.9787 75.538 53.912V30.168H83.442Z" fill="#1E1E1E"/>
<path d="M148.424 37.112C148.189 37.4107 147.955 37.6453 147.72 37.816C147.507 37.9867 147.187 38.072 146.76 38.072C146.355 38.072 145.96 37.9547 145.576 37.72C145.192 37.464 144.733 37.1867 144.2 36.888C143.667 36.568 143.027 36.2907 142.28 36.056C141.555 35.8 140.648 35.672 139.56 35.672C138.173 35.672 136.957 35.928 135.912 36.44C134.867 36.9307 133.992 37.6453 133.288 38.584C132.605 39.5227 132.093 40.664 131.752 42.008C131.411 43.3307 131.24 44.8347 131.24 46.52C131.24 48.2693 131.421 49.8267 131.784 51.192C132.168 52.5573 132.712 53.7093 133.416 54.648C134.12 55.5653 134.973 56.2693 135.976 56.76C136.979 57.2293 138.109 57.464 139.368 57.464C140.627 57.464 141.64 57.3147 142.408 57.016C143.197 56.696 143.859 56.3547 144.392 55.992C144.925 55.608 145.384 55.2667 145.768 54.968C146.173 54.648 146.621 54.488 147.112 54.488C147.752 54.488 148.232 54.7333 148.552 55.224L150.824 58.104C149.949 59.128 149 59.992 147.976 60.696C146.952 61.3787 145.885 61.9333 144.776 62.36C143.688 62.7653 142.557 63.0533 141.384 63.224C140.232 63.3947 139.08 63.48 137.928 63.48C135.901 63.48 133.992 63.1067 132.2 62.36C130.408 61.592 128.84 60.4827 127.496 59.032C126.152 57.5813 125.085 55.8107 124.296 53.72C123.528 51.608 123.144 49.208 123.144 46.52C123.144 44.1093 123.485 41.88 124.168 39.832C124.872 37.7627 125.896 35.9813 127.24 34.488C128.584 32.9733 130.248 31.7893 132.232 30.936C134.216 30.0827 136.499 29.656 139.08 29.656C141.533 29.656 143.677 30.0507 145.512 30.84C147.368 31.6293 149.032 32.76 150.504 34.232L148.424 37.112ZM163.683 15.448V42.68H165.155C165.688 42.68 166.104 42.616 166.403 42.488C166.723 42.3387 167.043 42.0507 167.363 41.624L175.523 31.544C175.864 31.096 176.238 30.7547 176.643 30.52C177.07 30.2853 177.614 30.168 178.275 30.168H185.507L175.299 42.36C174.574 43.32 173.784 44.056 172.931 44.568C173.379 44.888 173.774 45.2613 174.115 45.688C174.478 46.1147 174.819 46.5733 175.139 47.064L186.083 63H178.947C178.328 63 177.795 62.904 177.347 62.712C176.899 62.4987 176.526 62.1253 176.227 61.592L167.843 49.144C167.544 48.6533 167.235 48.3333 166.915 48.184C166.595 48.0347 166.115 47.96 165.475 47.96H163.683V63H155.779V15.448H163.683ZM197.967 15.448V63H190.062V15.448H197.967ZM235.666 30.168L217.778 72.024C217.543 72.5787 217.234 72.9947 216.85 73.272C216.487 73.5707 215.922 73.72 215.154 73.72H209.266L215.41 60.536L202.13 30.168H209.074C209.692 30.168 210.172 30.3173 210.514 30.616C210.876 30.9147 211.143 31.256 211.314 31.64L218.29 48.664C218.524 49.24 218.716 49.816 218.866 50.392C219.036 50.968 219.196 51.5547 219.346 52.152C219.538 51.5547 219.73 50.968 219.922 50.392C220.114 49.7947 220.327 49.208 220.562 48.632L227.154 31.64C227.324 31.2133 227.602 30.8613 227.986 30.584C228.391 30.3067 228.839 30.168 229.33 30.168H235.666ZM272.553 52.088C273.022 52.088 273.438 52.2693 273.801 52.632L277.193 56.312C275.316 58.6373 273.001 60.4187 270.249 61.656C267.518 62.8933 264.233 63.512 260.393 63.512C256.958 63.512 253.865 62.9253 251.113 61.752C248.382 60.5787 246.046 58.9467 244.105 56.856C242.164 54.7653 240.67 52.2693 239.625 49.368C238.601 46.4667 238.089 43.2987 238.089 39.864C238.089 36.3867 238.644 33.208 239.753 30.328C240.862 27.4267 242.42 24.9307 244.425 22.84C246.452 20.7493 248.862 19.128 251.657 17.976C254.452 16.8027 257.545 16.216 260.937 16.216C264.308 16.216 267.294 16.7707 269.897 17.88C272.521 18.9893 274.75 20.44 276.585 22.232L273.705 26.232C273.534 26.488 273.31 26.712 273.033 26.904C272.777 27.096 272.414 27.192 271.945 27.192C271.625 27.192 271.294 27.1067 270.953 26.936C270.612 26.744 270.238 26.52 269.833 26.264C269.428 25.9867 268.958 25.688 268.425 25.368C267.892 25.048 267.273 24.76 266.569 24.504C265.865 24.2267 265.044 24.0027 264.105 23.832C263.188 23.64 262.121 23.544 260.905 23.544C258.836 23.544 256.937 23.9173 255.209 24.664C253.502 25.3893 252.03 26.456 250.793 27.864C249.556 29.2507 248.596 30.9573 247.913 32.984C247.23 34.9893 246.889 37.2827 246.889 39.864C246.889 42.4667 247.252 44.7813 247.977 46.808C248.724 48.8347 249.726 50.5413 250.985 51.928C252.244 53.3147 253.726 54.3813 255.433 55.128C257.14 55.8533 258.974 56.216 260.937 56.216C262.11 56.216 263.166 56.152 264.105 56.024C265.065 55.896 265.94 55.6933 266.729 55.416C267.54 55.1387 268.297 54.7867 269.001 54.36C269.726 53.912 270.441 53.368 271.145 52.728C271.358 52.536 271.582 52.3867 271.817 52.28C272.052 52.152 272.297 52.088 272.553 52.088ZM322.738 16.728L304.05 63H296.274L277.585 16.728H284.498C285.244 16.728 285.852 16.9093 286.322 17.272C286.791 17.6347 287.143 18.104 287.378 18.68L298.29 46.904C298.652 47.8213 298.994 48.8347 299.314 49.944C299.655 51.032 299.975 52.1733 300.274 53.368C300.53 52.1733 300.807 51.032 301.106 49.944C301.404 48.8347 301.735 47.8213 302.098 46.904L312.946 18.68C313.116 18.1893 313.447 17.7413 313.938 17.336C314.45 16.9307 315.068 16.728 315.794 16.728H322.738Z" fill="#1E1E1E"/>
<defs>
<clipPath id="clip0_7_8">
<rect width="60" height="60" fill="white" transform="translate(77 9)"/>
</clipPath>
</defs>
</svg>
